<svg width="48" height="48" viewBox="0 0 48 48" fill="none" xmlns="http://www.w3.org/2000/svg">
<path d="M13 15.5C13 16.3284 12.3284 17 11.5 17C10.6716 17 10 16.3284 10 15.5C10 14.6716 10.6716 14 11.5 14C12.3284 14 13 14.6716 13 15.5Z" fill="#1B344B"/>
<path d="M17 15.5C17 14.6716 17.6716 14 18.5 14H36.5C37.3284 14 38 14.6716 38 15.5V15.5C38 16.3284 37.3284 17 36.5 17H18.5C17.6716 17 17 16.3284 17 15.5V15.5Z" fill="#1B344B"/>
<path d="M13 24.5C13 25.3284 12.3284 26 11.5 26C10.6716 26 10 25.3284 10 24.5C10 23.6716 10.6716 23 11.5 23C12.3284 23 13 23.6716 13 24.5Z" fill="#1B344B"/>
<path d="M17 24.5C17 23.6716 17.6716 23 18.5 23H36.5C37.3284 23 38 23.6716 38 24.5V24.5C38 25.3284 37.3284 26 36.5 26H18.5C17.6716 26 17 25.3284 17 24.5V24.5Z" fill="#1B344B"/>
<path d="M13 33.5C13 34.3284 12.3284 35 11.5 35C10.6716 35 10 34.3284 10 33.5C10 32.6716 10.6716 32 11.5 32C12.3284 32 13 32.6716 13 33.5Z" fill="#1B344B"/>
<path d="M17 33.5C17 32.6716 17.6716 32 18.5 32H36.5C37.3284 32 38 32.6716 38 33.5V33.5C38 34.3284 37.3284 35 36.5 35H18.5C17.6716 35 17 34.3284 17 33.5V33.5Z" fill="#1B344B"/>
<path fill-rule="evenodd" clip-rule="evenodd" d="M2 3C2 1.34315 3.34315 0 5 0H43C44.6569 0 46 1.34315 46 3V45C46 46.6569 44.6569 48 43 48H5C3.34315 48 2 46.6569 2 45V3ZM5 3V45H43V3H5Z" fill="#1B344B"/>
</svg>
